<?xml version="1.0" standalone="no"?>
<!DOCTYPE svg PUBLIC "-//W3C//DTD SVG 20010904//EN"
 "http://www.w3.org/TR/2001/REC-SVG-20010904/DTD/svg10.dtd">
<svg version="1.0" xmlns="http://www.w3.org/2000/svg"
 width="212.000000pt" height="209.000000pt" viewBox="0 0 212.000000 209.000000"
 preserveAspectRatio="xMidYMid meet">

<g transform="translate(0.000000,209.000000) scale(0.100000,-0.100000)"
fill="#000000" stroke="none">
<path d="M125 2057 c-101 -57 -114 -205 -26 -280 54 -45 110 -53 184 -25 24 9
32 6 81 -36 l54 -46 131 0 131 0 0 -58 c0 -56 -1 -58 -35 -76 -20 -11 -45 -36
-58 -55 -21 -35 -22 -45 -25 -376 -4 -404 -2 -433 41 -482 17 -19 41 -39 54
-44 20 -7 23 -15 23 -63 l0 -54 -129 -4 -128 -3 -55 -47 -56 -48 -48 17 c-151
51 -281 -114 -199 -253 66 -112 237 -108 296 9 17 31 20 53 17 99 l-4 59 42
34 42 35 145 0 c180 0 177 -2 177 116 l0 84 35 0 35 0 0 -150 0 -150 -143 0
c-150 0 -167 -5 -167 -45 0 -42 15 -45 201 -45 172 0 178 1 193 22 13 18 16
55 16 195 l0 173 30 0 30 0 0 -243 c0 -224 2 -245 18 -260 24 -22 45 -21 65 1
15 16 17 49 17 260 l0 242 30 0 30 0 0 -173 c0 -140 3 -177 16 -195 15 -21 21
-22 193 -22 186 0 201 3 201 45 0 40 -17 45 -167 45 l-143 0 0 150 0 150 35 0
35 0 0 -84 c0 -118 -3 -116 177 -116 l145 0 42 -35 42 -34 -3 -63 c-5 -81 22
-131 87 -166 114 -60 250 22 250 152 0 80 -50 143 -131 167 -33 10 -49 10 -91
-4 l-51 -16 -46 41 c-25 22 -56 44 -69 49 -13 5 -75 9 -138 9 l-114 0 0 55 c0
49 3 57 23 64 13 5 37 25 54 44 43 49 45 78 41 482 -3 331 -4 341 -25 376 -13
19 -38 44 -58 55 -34 18 -35 20 -35 76 l0 58 131 0 131 0 54 46 c49 42 57 45
81 36 74 -28 130 -20 184 25 88 75 75 223 -26 280 -75 43 -177 21 -227 -49
-18 -27 -23 -47 -24 -104 -1 -70 -2 -72 -41 -108 l-40 -36 -151 0 c-178 0
-172 4 -172 -119 l0 -81 -35 0 -35 0 0 150 0 150 136 0 c74 0 144 5 155 10 27
15 24 56 -5 75 -21 14 -52 16 -190 13 -118 -2 -169 -7 -178 -16 -9 -9 -14 -63
-16 -197 l-3 -185 -30 0 -29 0 0 244 c0 209 -2 247 -16 260 -20 20 -48 20 -68
0 -14 -13 -16 -51 -16 -260 l0 -244 -29 0 -30 0 -3 185 c-2 134 -7 188 -16
197 -9 9 -60 14 -178 16 -138 3 -169 1 -190 -13 -29 -19 -32 -60 -5 -75 11 -5
81 -10 155 -10 l136 0 0 -150 0 -150 -35 0 -35 0 0 81 c0 123 6 119 -172 119
l-151 0 -40 36 c-39 36 -40 38 -41 108 -1 57 -6 77 -24 104 -50 70 -152 92
-227 49z m143 -104 c43 -47 6 -123 -59 -123 -57 0 -95 69 -65 116 33 49 83 52
124 7z m1700 1 c26 -29 27 -45 7 -83 -15 -30 -33 -41 -69 -41 -56 0 -93 68
-61 116 32 49 82 52 123 8z m-526 -511 c17 -15 18 -40 18 -380 0 -350 -1 -364
-20 -383 -19 -19 -33 -20 -380 -20 -347 0 -361 1 -380 20 -19 19 -20 33 -20
382 0 322 2 363 17 380 15 17 40 18 381 18 326 0 367 -2 384 -17z m-1177
-1178 c30 -30 32 -64 4 -99 -43 -55 -133 -22 -133 49 0 70 79 101 129 50z
m1696 6 c17 -13 23 -29 23 -56 0 -71 -90 -104 -133 -49 -28 35 -26 69 4 99 29
30 73 33 106 6z"/>
<path d="M992 1318 c-7 -7 -12 -23 -12 -37 0 -16 -14 -36 -41 -59 -104 -90
-104 -239 0 -322 30 -24 41 -41 41 -60 0 -55 60 -65 68 -11 4 26 42 30 42 3 0
-18 18 -42 31 -42 18 0 39 34 39 61 0 16 5 29 10 29 6 0 22 11 36 25 20 20 23
28 14 45 -14 26 -31 25 -76 -5 -61 -41 -128 -30 -184 30 -21 22 -25 36 -25 86
0 54 3 61 36 95 51 50 110 57 173 20 54 -31 62 -32 76 -5 10 17 6 25 -24 53
-20 18 -36 41 -36 52 0 11 -6 29 -14 40 -12 15 -18 17 -33 8 -10 -6 -19 -21
-21 -33 -4 -26 -42 -30 -42 -3 0 20 -18 42 -35 42 -6 0 -16 -5 -23 -12z"/>
</g>
</svg>
